<mxfile host="app.diagrams.net" modified="2023-09-28T07:46:44.426Z" agent="Mozilla/5.0 (X11; Linux x86_64; rv:109.0) Gecko/20100101 Firefox/117.0" version="21.8.2" etag="wkMu47Y4aU64LOvwvEMe" type="github">
  <diagram name="第 1 页" id="2yS2kT6jV_i-2i0FTTA7">
    <mxGraphModel>
      <root>
        <mxCell id="0" />
        <mxCell id="1" parent="0" />
      </root>
    </mxGraphModel>
  </diagram>
</mxfile>
